G04 #@! TF.GenerationSoftware,KiCad,Pcbnew,(6.0.7)*
G04 #@! TF.CreationDate,2022-09-24T00:10:23+07:00*
G04 #@! TF.ProjectId,Reflow_Touch_shield_ESP32,5265666c-6f77-45f5-946f-7563685f7368,rev?*
G04 #@! TF.SameCoordinates,Original*
G04 #@! TF.FileFunction,Legend,Top*
G04 #@! TF.FilePolarity,Positive*
%FSLAX46Y46*%
G04 Gerber Fmt 4.6, Leading zero omitted, Abs format (unit mm)*
G04 Created by KiCad (PCBNEW (6.0.7)) date 2022-09-24 00:10:23*
%MOMM*%
%LPD*%
G01*
G04 APERTURE LIST*
G04 Aperture macros list*
%AMRoundRect*
0 Rectangle with rounded corners*
0 $1 Rounding radius*
0 $2 $3 $4 $5 $6 $7 $8 $9 X,Y pos of 4 corners*
0 Add a 4 corners polygon primitive as box body*
4,1,4,$2,$3,$4,$5,$6,$7,$8,$9,$2,$3,0*
0 Add four circle primitives for the rounded corners*
1,1,$1+$1,$2,$3*
1,1,$1+$1,$4,$5*
1,1,$1+$1,$6,$7*
1,1,$1+$1,$8,$9*
0 Add four rect primitives between the rounded corners*
20,1,$1+$1,$2,$3,$4,$5,0*
20,1,$1+$1,$4,$5,$6,$7,0*
20,1,$1+$1,$6,$7,$8,$9,0*
20,1,$1+$1,$8,$9,$2,$3,0*%
G04 Aperture macros list end*
%ADD10C,0.250000*%
%ADD11C,0.200000*%
%ADD12C,0.120000*%
%ADD13RoundRect,0.250000X0.750000X-0.600000X0.750000X0.600000X-0.750000X0.600000X-0.750000X-0.600000X0*%
%ADD14O,2.000000X1.700000*%
%ADD15R,1.600000X1.600000*%
%ADD16O,1.600000X1.600000*%
%ADD17R,2.600000X2.600000*%
%ADD18C,2.600000*%
%ADD19C,3.800000*%
%ADD20C,1.800000*%
G04 APERTURE END LIST*
D10*
X84887738Y-78802380D02*
X85459166Y-78802380D01*
X85173452Y-79802380D02*
X85173452Y-78802380D01*
X85554404Y-79897619D02*
X86316309Y-79897619D01*
X87125833Y-79707142D02*
X87078214Y-79754761D01*
X86935357Y-79802380D01*
X86840119Y-79802380D01*
X86697261Y-79754761D01*
X86602023Y-79659523D01*
X86554404Y-79564285D01*
X86506785Y-79373809D01*
X86506785Y-79230952D01*
X86554404Y-79040476D01*
X86602023Y-78945238D01*
X86697261Y-78850000D01*
X86840119Y-78802380D01*
X86935357Y-78802380D01*
X87078214Y-78850000D01*
X87125833Y-78897619D01*
X88030595Y-79802380D02*
X87554404Y-79802380D01*
X87554404Y-78802380D01*
X88363928Y-79802380D02*
X88363928Y-78802380D01*
X88935357Y-79802380D02*
X88506785Y-79230952D01*
X88935357Y-78802380D02*
X88363928Y-79373809D01*
X84887738Y-81342380D02*
X85459166Y-81342380D01*
X85173452Y-82342380D02*
X85173452Y-81342380D01*
X85554404Y-82437619D02*
X86316309Y-82437619D01*
X87125833Y-82247142D02*
X87078214Y-82294761D01*
X86935357Y-82342380D01*
X86840119Y-82342380D01*
X86697261Y-82294761D01*
X86602023Y-82199523D01*
X86554404Y-82104285D01*
X86506785Y-81913809D01*
X86506785Y-81770952D01*
X86554404Y-81580476D01*
X86602023Y-81485238D01*
X86697261Y-81390000D01*
X86840119Y-81342380D01*
X86935357Y-81342380D01*
X87078214Y-81390000D01*
X87125833Y-81437619D01*
X87506785Y-82294761D02*
X87649642Y-82342380D01*
X87887738Y-82342380D01*
X87982976Y-82294761D01*
X88030595Y-82247142D01*
X88078214Y-82151904D01*
X88078214Y-82056666D01*
X88030595Y-81961428D01*
X87982976Y-81913809D01*
X87887738Y-81866190D01*
X87697261Y-81818571D01*
X87602023Y-81770952D01*
X87554404Y-81723333D01*
X87506785Y-81628095D01*
X87506785Y-81532857D01*
X87554404Y-81437619D01*
X87602023Y-81390000D01*
X87697261Y-81342380D01*
X87935357Y-81342380D01*
X88078214Y-81390000D01*
X85030595Y-77262380D02*
X85030595Y-76262380D01*
X85363928Y-76976666D01*
X85697261Y-76262380D01*
X85697261Y-77262380D01*
X86173452Y-77262380D02*
X86173452Y-76262380D01*
X86602023Y-77214761D02*
X86744880Y-77262380D01*
X86982976Y-77262380D01*
X87078214Y-77214761D01*
X87125833Y-77167142D01*
X87173452Y-77071904D01*
X87173452Y-76976666D01*
X87125833Y-76881428D01*
X87078214Y-76833809D01*
X86982976Y-76786190D01*
X86792500Y-76738571D01*
X86697261Y-76690952D01*
X86649642Y-76643333D01*
X86602023Y-76548095D01*
X86602023Y-76452857D01*
X86649642Y-76357619D01*
X86697261Y-76310000D01*
X86792500Y-76262380D01*
X87030595Y-76262380D01*
X87173452Y-76310000D01*
X87792500Y-76262380D02*
X87982976Y-76262380D01*
X88078214Y-76310000D01*
X88173452Y-76405238D01*
X88221071Y-76595714D01*
X88221071Y-76929047D01*
X88173452Y-77119523D01*
X88078214Y-77214761D01*
X87982976Y-77262380D01*
X87792500Y-77262380D01*
X87697261Y-77214761D01*
X87602023Y-77119523D01*
X87554404Y-76929047D01*
X87554404Y-76595714D01*
X87602023Y-76405238D01*
X87697261Y-76310000D01*
X87792500Y-76262380D01*
X85554404Y-58530000D02*
X85459166Y-58482380D01*
X85316309Y-58482380D01*
X85173452Y-58530000D01*
X85078214Y-58625238D01*
X85030595Y-58720476D01*
X84982976Y-58910952D01*
X84982976Y-59053809D01*
X85030595Y-59244285D01*
X85078214Y-59339523D01*
X85173452Y-59434761D01*
X85316309Y-59482380D01*
X85411547Y-59482380D01*
X85554404Y-59434761D01*
X85602023Y-59387142D01*
X85602023Y-59053809D01*
X85411547Y-59053809D01*
X86030595Y-59482380D02*
X86030595Y-58482380D01*
X86602023Y-59482380D01*
X86602023Y-58482380D01*
X87078214Y-59482380D02*
X87078214Y-58482380D01*
X87316309Y-58482380D01*
X87459166Y-58530000D01*
X87554404Y-58625238D01*
X87602023Y-58720476D01*
X87649642Y-58910952D01*
X87649642Y-59053809D01*
X87602023Y-59244285D01*
X87554404Y-59339523D01*
X87459166Y-59434761D01*
X87316309Y-59482380D01*
X87078214Y-59482380D01*
X84982976Y-72134761D02*
X85125833Y-72182380D01*
X85363928Y-72182380D01*
X85459166Y-72134761D01*
X85506785Y-72087142D01*
X85554404Y-71991904D01*
X85554404Y-71896666D01*
X85506785Y-71801428D01*
X85459166Y-71753809D01*
X85363928Y-71706190D01*
X85173452Y-71658571D01*
X85078214Y-71610952D01*
X85030595Y-71563333D01*
X84982976Y-71468095D01*
X84982976Y-71372857D01*
X85030595Y-71277619D01*
X85078214Y-71230000D01*
X85173452Y-71182380D01*
X85411547Y-71182380D01*
X85554404Y-71230000D01*
X86554404Y-72087142D02*
X86506785Y-72134761D01*
X86363928Y-72182380D01*
X86268690Y-72182380D01*
X86125833Y-72134761D01*
X86030595Y-72039523D01*
X85982976Y-71944285D01*
X85935357Y-71753809D01*
X85935357Y-71610952D01*
X85982976Y-71420476D01*
X86030595Y-71325238D01*
X86125833Y-71230000D01*
X86268690Y-71182380D01*
X86363928Y-71182380D01*
X86506785Y-71230000D01*
X86554404Y-71277619D01*
X86982976Y-72182380D02*
X86982976Y-71182380D01*
X87554404Y-72182380D02*
X87125833Y-71610952D01*
X87554404Y-71182380D02*
X86982976Y-71753809D01*
X84887738Y-83882380D02*
X85459166Y-83882380D01*
X85173452Y-84882380D02*
X85173452Y-83882380D01*
X85554404Y-84977619D02*
X86316309Y-84977619D01*
X86554404Y-84882380D02*
X86554404Y-83882380D01*
X86792500Y-83882380D01*
X86935357Y-83930000D01*
X87030595Y-84025238D01*
X87078214Y-84120476D01*
X87125833Y-84310952D01*
X87125833Y-84453809D01*
X87078214Y-84644285D01*
X87030595Y-84739523D01*
X86935357Y-84834761D01*
X86792500Y-84882380D01*
X86554404Y-84882380D01*
X87554404Y-84882380D02*
X87554404Y-83882380D01*
X88030595Y-84882380D02*
X88030595Y-83882380D01*
X88602023Y-84882380D01*
X88602023Y-83882380D01*
X84887738Y-88962380D02*
X85459166Y-88962380D01*
X85173452Y-89962380D02*
X85173452Y-88962380D01*
X85554404Y-90057619D02*
X86316309Y-90057619D01*
X86554404Y-89962380D02*
X86554404Y-88962380D01*
X87602023Y-89962380D02*
X87268690Y-89486190D01*
X87030595Y-89962380D02*
X87030595Y-88962380D01*
X87411547Y-88962380D01*
X87506785Y-89010000D01*
X87554404Y-89057619D01*
X87602023Y-89152857D01*
X87602023Y-89295714D01*
X87554404Y-89390952D01*
X87506785Y-89438571D01*
X87411547Y-89486190D01*
X87030595Y-89486190D01*
X88697261Y-90057619D02*
X88602023Y-90010000D01*
X88506785Y-89914761D01*
X88363928Y-89771904D01*
X88268690Y-89724285D01*
X88173452Y-89724285D01*
X88221071Y-89962380D02*
X88125833Y-89914761D01*
X88030595Y-89819523D01*
X87982976Y-89629047D01*
X87982976Y-89295714D01*
X88030595Y-89105238D01*
X88125833Y-89010000D01*
X88221071Y-88962380D01*
X88411547Y-88962380D01*
X88506785Y-89010000D01*
X88602023Y-89105238D01*
X88649642Y-89295714D01*
X88649642Y-89629047D01*
X88602023Y-89819523D01*
X88506785Y-89914761D01*
X88411547Y-89962380D01*
X88221071Y-89962380D01*
X85030595Y-67102380D02*
X85030595Y-66102380D01*
X85268690Y-66102380D01*
X85411547Y-66150000D01*
X85506785Y-66245238D01*
X85554404Y-66340476D01*
X85602023Y-66530952D01*
X85602023Y-66673809D01*
X85554404Y-66864285D01*
X85506785Y-66959523D01*
X85411547Y-67054761D01*
X85268690Y-67102380D01*
X85030595Y-67102380D01*
X86602023Y-67007142D02*
X86554404Y-67054761D01*
X86411547Y-67102380D01*
X86316309Y-67102380D01*
X86173452Y-67054761D01*
X86078214Y-66959523D01*
X86030595Y-66864285D01*
X85982976Y-66673809D01*
X85982976Y-66530952D01*
X86030595Y-66340476D01*
X86078214Y-66245238D01*
X86173452Y-66150000D01*
X86316309Y-66102380D01*
X86411547Y-66102380D01*
X86554404Y-66150000D01*
X86602023Y-66197619D01*
X85030595Y-69642380D02*
X85030595Y-68642380D01*
X85363928Y-69356666D01*
X85697261Y-68642380D01*
X85697261Y-69642380D01*
X86363928Y-68642380D02*
X86554404Y-68642380D01*
X86649642Y-68690000D01*
X86744880Y-68785238D01*
X86792500Y-68975714D01*
X86792500Y-69309047D01*
X86744880Y-69499523D01*
X86649642Y-69594761D01*
X86554404Y-69642380D01*
X86363928Y-69642380D01*
X86268690Y-69594761D01*
X86173452Y-69499523D01*
X86125833Y-69309047D01*
X86125833Y-68975714D01*
X86173452Y-68785238D01*
X86268690Y-68690000D01*
X86363928Y-68642380D01*
X87173452Y-69594761D02*
X87316309Y-69642380D01*
X87554404Y-69642380D01*
X87649642Y-69594761D01*
X87697261Y-69547142D01*
X87744880Y-69451904D01*
X87744880Y-69356666D01*
X87697261Y-69261428D01*
X87649642Y-69213809D01*
X87554404Y-69166190D01*
X87363928Y-69118571D01*
X87268690Y-69070952D01*
X87221071Y-69023333D01*
X87173452Y-68928095D01*
X87173452Y-68832857D01*
X87221071Y-68737619D01*
X87268690Y-68690000D01*
X87363928Y-68642380D01*
X87602023Y-68642380D01*
X87744880Y-68690000D01*
X88173452Y-69642380D02*
X88173452Y-68642380D01*
X85602023Y-64562380D02*
X85268690Y-64086190D01*
X85030595Y-64562380D02*
X85030595Y-63562380D01*
X85411547Y-63562380D01*
X85506785Y-63610000D01*
X85554404Y-63657619D01*
X85602023Y-63752857D01*
X85602023Y-63895714D01*
X85554404Y-63990952D01*
X85506785Y-64038571D01*
X85411547Y-64086190D01*
X85030595Y-64086190D01*
X85982976Y-64514761D02*
X86125833Y-64562380D01*
X86363928Y-64562380D01*
X86459166Y-64514761D01*
X86506785Y-64467142D01*
X86554404Y-64371904D01*
X86554404Y-64276666D01*
X86506785Y-64181428D01*
X86459166Y-64133809D01*
X86363928Y-64086190D01*
X86173452Y-64038571D01*
X86078214Y-63990952D01*
X86030595Y-63943333D01*
X85982976Y-63848095D01*
X85982976Y-63752857D01*
X86030595Y-63657619D01*
X86078214Y-63610000D01*
X86173452Y-63562380D01*
X86411547Y-63562380D01*
X86554404Y-63610000D01*
X86840119Y-63562380D02*
X87411547Y-63562380D01*
X87125833Y-64562380D02*
X87125833Y-63562380D01*
X85602023Y-61927142D02*
X85554404Y-61974761D01*
X85411547Y-62022380D01*
X85316309Y-62022380D01*
X85173452Y-61974761D01*
X85078214Y-61879523D01*
X85030595Y-61784285D01*
X84982976Y-61593809D01*
X84982976Y-61450952D01*
X85030595Y-61260476D01*
X85078214Y-61165238D01*
X85173452Y-61070000D01*
X85316309Y-61022380D01*
X85411547Y-61022380D01*
X85554404Y-61070000D01*
X85602023Y-61117619D01*
X85982976Y-61974761D02*
X86125833Y-62022380D01*
X86363928Y-62022380D01*
X86459166Y-61974761D01*
X86506785Y-61927142D01*
X86554404Y-61831904D01*
X86554404Y-61736666D01*
X86506785Y-61641428D01*
X86459166Y-61593809D01*
X86363928Y-61546190D01*
X86173452Y-61498571D01*
X86078214Y-61450952D01*
X86030595Y-61403333D01*
X85982976Y-61308095D01*
X85982976Y-61212857D01*
X86030595Y-61117619D01*
X86078214Y-61070000D01*
X86173452Y-61022380D01*
X86411547Y-61022380D01*
X86554404Y-61070000D01*
X85506785Y-74722380D02*
X85030595Y-74722380D01*
X85030595Y-73722380D01*
X85840119Y-74198571D02*
X86173452Y-74198571D01*
X86316309Y-74722380D02*
X85840119Y-74722380D01*
X85840119Y-73722380D01*
X86316309Y-73722380D01*
X86744880Y-74722380D02*
X86744880Y-73722380D01*
X86982976Y-73722380D01*
X87125833Y-73770000D01*
X87221071Y-73865238D01*
X87268690Y-73960476D01*
X87316309Y-74150952D01*
X87316309Y-74293809D01*
X87268690Y-74484285D01*
X87221071Y-74579523D01*
X87125833Y-74674761D01*
X86982976Y-74722380D01*
X86744880Y-74722380D01*
X84887738Y-55942380D02*
X85221071Y-56942380D01*
X85554404Y-55942380D01*
X86459166Y-56847142D02*
X86411547Y-56894761D01*
X86268690Y-56942380D01*
X86173452Y-56942380D01*
X86030595Y-56894761D01*
X85935357Y-56799523D01*
X85887738Y-56704285D01*
X85840119Y-56513809D01*
X85840119Y-56370952D01*
X85887738Y-56180476D01*
X85935357Y-56085238D01*
X86030595Y-55990000D01*
X86173452Y-55942380D01*
X86268690Y-55942380D01*
X86411547Y-55990000D01*
X86459166Y-56037619D01*
X87459166Y-56847142D02*
X87411547Y-56894761D01*
X87268690Y-56942380D01*
X87173452Y-56942380D01*
X87030595Y-56894761D01*
X86935357Y-56799523D01*
X86887738Y-56704285D01*
X86840119Y-56513809D01*
X86840119Y-56370952D01*
X86887738Y-56180476D01*
X86935357Y-56085238D01*
X87030595Y-55990000D01*
X87173452Y-55942380D01*
X87268690Y-55942380D01*
X87411547Y-55990000D01*
X87459166Y-56037619D01*
X84887738Y-86422380D02*
X85459166Y-86422380D01*
X85173452Y-87422380D02*
X85173452Y-86422380D01*
X85554404Y-87517619D02*
X86316309Y-87517619D01*
X86554404Y-87422380D02*
X86554404Y-86422380D01*
X86792500Y-86422380D01*
X86935357Y-86470000D01*
X87030595Y-86565238D01*
X87078214Y-86660476D01*
X87125833Y-86850952D01*
X87125833Y-86993809D01*
X87078214Y-87184285D01*
X87030595Y-87279523D01*
X86935357Y-87374761D01*
X86792500Y-87422380D01*
X86554404Y-87422380D01*
X87744880Y-86422380D02*
X87935357Y-86422380D01*
X88030595Y-86470000D01*
X88125833Y-86565238D01*
X88173452Y-86755714D01*
X88173452Y-87089047D01*
X88125833Y-87279523D01*
X88030595Y-87374761D01*
X87935357Y-87422380D01*
X87744880Y-87422380D01*
X87649642Y-87374761D01*
X87554404Y-87279523D01*
X87506785Y-87089047D01*
X87506785Y-86755714D01*
X87554404Y-86565238D01*
X87649642Y-86470000D01*
X87744880Y-86422380D01*
X90511619Y-82072857D02*
X90511619Y-82644285D01*
X89511619Y-82358571D02*
X90511619Y-82358571D01*
X90511619Y-83168095D02*
X90511619Y-83358571D01*
X90464000Y-83453809D01*
X90368761Y-83549047D01*
X90178285Y-83596666D01*
X89844952Y-83596666D01*
X89654476Y-83549047D01*
X89559238Y-83453809D01*
X89511619Y-83358571D01*
X89511619Y-83168095D01*
X89559238Y-83072857D01*
X89654476Y-82977619D01*
X89844952Y-82930000D01*
X90178285Y-82930000D01*
X90368761Y-82977619D01*
X90464000Y-83072857D01*
X90511619Y-83168095D01*
X90511619Y-84025238D02*
X89702095Y-84025238D01*
X89606857Y-84072857D01*
X89559238Y-84120476D01*
X89511619Y-84215714D01*
X89511619Y-84406190D01*
X89559238Y-84501428D01*
X89606857Y-84549047D01*
X89702095Y-84596666D01*
X90511619Y-84596666D01*
X89606857Y-85644285D02*
X89559238Y-85596666D01*
X89511619Y-85453809D01*
X89511619Y-85358571D01*
X89559238Y-85215714D01*
X89654476Y-85120476D01*
X89749714Y-85072857D01*
X89940190Y-85025238D01*
X90083047Y-85025238D01*
X90273523Y-85072857D01*
X90368761Y-85120476D01*
X90464000Y-85215714D01*
X90511619Y-85358571D01*
X90511619Y-85453809D01*
X90464000Y-85596666D01*
X90416380Y-85644285D01*
X89511619Y-86072857D02*
X90511619Y-86072857D01*
X90035428Y-86072857D02*
X90035428Y-86644285D01*
X89511619Y-86644285D02*
X90511619Y-86644285D01*
D11*
X89710000Y-90780000D02*
X88440000Y-90780000D01*
X89710000Y-78080000D02*
X90980000Y-79350000D01*
D12*
X160600000Y-48000000D02*
X160600000Y-98000000D01*
X91400000Y-48000000D02*
X91400000Y-98000000D01*
D11*
X90980000Y-79350000D02*
X90980000Y-89510000D01*
X90980000Y-89510000D02*
X89710000Y-90780000D01*
X88440000Y-78080000D02*
X89710000Y-78080000D01*
D12*
X81000000Y-98000000D02*
X167000000Y-98000000D01*
X167000000Y-98000000D02*
X167000000Y-48000000D01*
X167000000Y-48000000D02*
X81000000Y-48000000D01*
X81000000Y-48000000D02*
X81000000Y-98000000D01*
%LPC*%
D13*
X161036000Y-88860000D03*
D14*
X161036000Y-86360000D03*
X161036000Y-77470000D03*
D13*
X161036000Y-79970000D03*
D14*
X161036000Y-68580000D03*
D13*
X161036000Y-71080000D03*
D15*
X126873000Y-48870000D03*
D16*
X124333000Y-48870000D03*
X121793000Y-48870000D03*
X119253000Y-48870000D03*
X116713000Y-48870000D03*
X114173000Y-48870000D03*
X111633000Y-48870000D03*
X109093000Y-48870000D03*
X104013000Y-48870000D03*
X101473000Y-48870000D03*
X98933000Y-48870000D03*
X96393000Y-48870000D03*
X93853000Y-48870000D03*
X91313000Y-48870000D03*
X91313000Y-97130000D03*
X93853000Y-97130000D03*
X96393000Y-97130000D03*
X98933000Y-97130000D03*
X101473000Y-97130000D03*
X104013000Y-97130000D03*
X106553000Y-97130000D03*
X109093000Y-97130000D03*
X113153000Y-97130000D03*
X115693000Y-97130000D03*
X118233000Y-97130000D03*
X120773000Y-97130000D03*
X123313000Y-97130000D03*
X125853000Y-97130000D03*
X128393000Y-97130000D03*
X130933000Y-97130000D03*
X133473000Y-97130000D03*
X136013000Y-97130000D03*
D17*
X162865000Y-56743600D03*
D18*
X162865000Y-61823600D03*
D19*
X87920000Y-95000000D03*
X164000000Y-51000000D03*
X87920000Y-51000000D03*
X164000000Y-95000000D03*
D20*
X83000000Y-56490000D03*
X83000000Y-59030000D03*
X83000000Y-61570000D03*
X83000000Y-64110000D03*
X83000000Y-66650000D03*
X83000000Y-69190000D03*
X83000000Y-71730000D03*
X83000000Y-74270000D03*
X83000000Y-76810000D03*
X83000000Y-79350000D03*
X83000000Y-81890000D03*
X83000000Y-84430000D03*
X83000000Y-86970000D03*
X83000000Y-89510000D03*
M02*
