M48
; DRILL file {KiCad (6.0.7)} date Sat Sep 24 00:10:23 2022
; FORMAT={-:-/ absolute / inch / decimal}
; #@! TF.CreationDate,2022-09-24T00:10:23+07:00
; #@! TF.GenerationSoftware,Kicad,Pcbnew,(6.0.7)
; #@! TF.FileFunction,Plated,1,2,PTH
FMAT,2
INCH
; #@! TA.AperFunction,Plated,PTH,ViaDrill
T1C0.0157
; #@! TA.AperFunction,Plated,PTH,ComponentDrill
T2C0.0394
; #@! TA.AperFunction,Plated,PTH,ComponentDrill
T3C0.0512
%
G90
G05
T1
X3.3963Y-3.2622
X3.6667Y-3.3303
X4.6958Y-2.3058
X4.7015Y-3.424
X5.24Y-2.45
X5.8169Y-2.6656
X5.8199Y-3.3624
X5.922Y-3.17
X6.001Y-2.9814
X6.058Y-3.2847
X6.083Y-2.7324
T2
X3.2677Y-2.224
X3.2677Y-2.324
X3.2677Y-2.424
X3.2677Y-2.524
X3.2677Y-2.624
X3.2677Y-2.724
X3.2677Y-2.824
X3.2677Y-2.924
X3.2677Y-3.024
X3.2677Y-3.124
X3.2677Y-3.224
X3.2677Y-3.324
X3.2677Y-3.424
X3.2677Y-3.524
X3.595Y-1.924
X3.595Y-3.824
X3.695Y-1.924
X3.695Y-3.824
X3.795Y-1.924
X3.795Y-3.824
X3.895Y-1.924
X3.895Y-3.824
X3.995Y-1.924
X3.995Y-3.824
X4.095Y-1.924
X4.095Y-3.824
X4.195Y-3.824
X4.295Y-1.924
X4.295Y-3.824
X4.395Y-1.924
X4.4548Y-3.824
X4.495Y-1.924
X4.5548Y-3.824
X4.595Y-1.924
X4.6548Y-3.824
X4.695Y-1.924
X4.7548Y-3.824
X4.795Y-1.924
X4.8548Y-3.824
X4.895Y-1.924
X4.9548Y-3.824
X4.995Y-1.924
X5.0548Y-3.824
X5.1548Y-3.824
X5.2548Y-3.824
X5.3548Y-3.824
X6.34Y-2.7
X6.34Y-2.7984
X6.34Y-3.05
X6.34Y-3.1484
X6.34Y-3.4
X6.34Y-3.4984
T3
X6.412Y-2.234
X6.412Y-2.434
T0
M30
