G04 #@! TF.GenerationSoftware,KiCad,Pcbnew,(6.0.7)*
G04 #@! TF.CreationDate,2022-09-24T00:10:23+07:00*
G04 #@! TF.ProjectId,Reflow_Touch_shield_ESP32,5265666c-6f77-45f5-946f-7563685f7368,rev?*
G04 #@! TF.SameCoordinates,Original*
G04 #@! TF.FileFunction,Soldermask,Top*
G04 #@! TF.FilePolarity,Negative*
%FSLAX46Y46*%
G04 Gerber Fmt 4.6, Leading zero omitted, Abs format (unit mm)*
G04 Created by KiCad (PCBNEW (6.0.7)) date 2022-09-24 00:10:23*
%MOMM*%
%LPD*%
G01*
G04 APERTURE LIST*
G04 Aperture macros list*
%AMRoundRect*
0 Rectangle with rounded corners*
0 $1 Rounding radius*
0 $2 $3 $4 $5 $6 $7 $8 $9 X,Y pos of 4 corners*
0 Add a 4 corners polygon primitive as box body*
4,1,4,$2,$3,$4,$5,$6,$7,$8,$9,$2,$3,0*
0 Add four circle primitives for the rounded corners*
1,1,$1+$1,$2,$3*
1,1,$1+$1,$4,$5*
1,1,$1+$1,$6,$7*
1,1,$1+$1,$8,$9*
0 Add four rect primitives between the rounded corners*
20,1,$1+$1,$2,$3,$4,$5,0*
20,1,$1+$1,$4,$5,$6,$7,0*
20,1,$1+$1,$6,$7,$8,$9,0*
20,1,$1+$1,$8,$9,$2,$3,0*%
G04 Aperture macros list end*
%ADD10RoundRect,0.250000X0.750000X-0.600000X0.750000X0.600000X-0.750000X0.600000X-0.750000X-0.600000X0*%
%ADD11O,2.000000X1.700000*%
%ADD12R,1.600000X1.600000*%
%ADD13O,1.600000X1.600000*%
%ADD14R,2.600000X2.600000*%
%ADD15C,2.600000*%
%ADD16C,3.800000*%
%ADD17C,1.800000*%
G04 APERTURE END LIST*
D10*
X161036000Y-88860000D03*
D11*
X161036000Y-86360000D03*
X161036000Y-77470000D03*
D10*
X161036000Y-79970000D03*
D11*
X161036000Y-68580000D03*
D10*
X161036000Y-71080000D03*
D12*
X126873000Y-48870000D03*
D13*
X124333000Y-48870000D03*
X121793000Y-48870000D03*
X119253000Y-48870000D03*
X116713000Y-48870000D03*
X114173000Y-48870000D03*
X111633000Y-48870000D03*
X109093000Y-48870000D03*
X104013000Y-48870000D03*
X101473000Y-48870000D03*
X98933000Y-48870000D03*
X96393000Y-48870000D03*
X93853000Y-48870000D03*
X91313000Y-48870000D03*
X91313000Y-97130000D03*
X93853000Y-97130000D03*
X96393000Y-97130000D03*
X98933000Y-97130000D03*
X101473000Y-97130000D03*
X104013000Y-97130000D03*
X106553000Y-97130000D03*
X109093000Y-97130000D03*
X113153000Y-97130000D03*
X115693000Y-97130000D03*
X118233000Y-97130000D03*
X120773000Y-97130000D03*
X123313000Y-97130000D03*
X125853000Y-97130000D03*
X128393000Y-97130000D03*
X130933000Y-97130000D03*
X133473000Y-97130000D03*
X136013000Y-97130000D03*
D14*
X162865000Y-56743600D03*
D15*
X162865000Y-61823600D03*
D16*
X87920000Y-95000000D03*
X164000000Y-51000000D03*
X87920000Y-51000000D03*
X164000000Y-95000000D03*
D17*
X83000000Y-56490000D03*
X83000000Y-59030000D03*
X83000000Y-61570000D03*
X83000000Y-64110000D03*
X83000000Y-66650000D03*
X83000000Y-69190000D03*
X83000000Y-71730000D03*
X83000000Y-74270000D03*
X83000000Y-76810000D03*
X83000000Y-79350000D03*
X83000000Y-81890000D03*
X83000000Y-84430000D03*
X83000000Y-86970000D03*
X83000000Y-89510000D03*
M02*
