G04 #@! TF.GenerationSoftware,KiCad,Pcbnew,(6.0.7)*
G04 #@! TF.CreationDate,2022-09-24T00:10:23+07:00*
G04 #@! TF.ProjectId,Reflow_Touch_shield_ESP32,5265666c-6f77-45f5-946f-7563685f7368,rev?*
G04 #@! TF.SameCoordinates,Original*
G04 #@! TF.FileFunction,Legend,Bot*
G04 #@! TF.FilePolarity,Positive*
%FSLAX46Y46*%
G04 Gerber Fmt 4.6, Leading zero omitted, Abs format (unit mm)*
G04 Created by KiCad (PCBNEW (6.0.7)) date 2022-09-24 00:10:23*
%MOMM*%
%LPD*%
G01*
G04 APERTURE LIST*
G04 Aperture macros list*
%AMRoundRect*
0 Rectangle with rounded corners*
0 $1 Rounding radius*
0 $2 $3 $4 $5 $6 $7 $8 $9 X,Y pos of 4 corners*
0 Add a 4 corners polygon primitive as box body*
4,1,4,$2,$3,$4,$5,$6,$7,$8,$9,$2,$3,0*
0 Add four circle primitives for the rounded corners*
1,1,$1+$1,$2,$3*
1,1,$1+$1,$4,$5*
1,1,$1+$1,$6,$7*
1,1,$1+$1,$8,$9*
0 Add four rect primitives between the rounded corners*
20,1,$1+$1,$2,$3,$4,$5,0*
20,1,$1+$1,$4,$5,$6,$7,0*
20,1,$1+$1,$6,$7,$8,$9,0*
20,1,$1+$1,$8,$9,$2,$3,0*%
G04 Aperture macros list end*
%ADD10C,0.375000*%
%ADD11C,0.300000*%
%ADD12C,0.150000*%
%ADD13C,0.120000*%
%ADD14C,0.050800*%
%ADD15C,0.152400*%
%ADD16RoundRect,0.250000X0.750000X-0.600000X0.750000X0.600000X-0.750000X0.600000X-0.750000X-0.600000X0*%
%ADD17O,2.000000X1.700000*%
%ADD18R,1.600000X1.600000*%
%ADD19O,1.600000X1.600000*%
%ADD20RoundRect,0.237500X0.237500X-0.250000X0.237500X0.250000X-0.237500X0.250000X-0.237500X-0.250000X0*%
%ADD21R,1.900000X0.800000*%
%ADD22R,1.200000X0.900000*%
%ADD23R,2.500000X2.500000*%
%ADD24R,2.600000X2.600000*%
%ADD25C,2.600000*%
%ADD26RoundRect,0.237500X-0.300000X-0.237500X0.300000X-0.237500X0.300000X0.237500X-0.300000X0.237500X0*%
%ADD27C,3.800000*%
%ADD28C,1.800000*%
%ADD29R,2.032000X0.660400*%
G04 APERTURE END LIST*
D10*
X159575428Y-52431142D02*
X158432571Y-52431142D01*
X159004000Y-53002571D02*
X159004000Y-51859714D01*
D11*
X158547545Y-88442857D02*
X158547545Y-89357142D01*
X159004688Y-88900000D02*
X158090402Y-88900000D01*
X158547545Y-85902857D02*
X158547545Y-86817142D01*
X158581714Y-79552857D02*
X158581714Y-80467142D01*
X159038857Y-80010000D02*
X158124571Y-80010000D01*
X158581714Y-77012857D02*
X158581714Y-77927142D01*
X158581714Y-68122857D02*
X158581714Y-69037142D01*
X158581714Y-70662857D02*
X158581714Y-71577142D01*
X159038857Y-71120000D02*
X158124571Y-71120000D01*
D12*
X168388380Y-87276666D02*
X169102666Y-87276666D01*
X169245523Y-87229047D01*
X169340761Y-87133809D01*
X169388380Y-86990952D01*
X169388380Y-86895714D01*
X168388380Y-88229047D02*
X168388380Y-87752857D01*
X168864571Y-87705238D01*
X168816952Y-87752857D01*
X168769333Y-87848095D01*
X168769333Y-88086190D01*
X168816952Y-88181428D01*
X168864571Y-88229047D01*
X168959809Y-88276666D01*
X169197904Y-88276666D01*
X169293142Y-88229047D01*
X169340761Y-88181428D01*
X169388380Y-88086190D01*
X169388380Y-87848095D01*
X169340761Y-87752857D01*
X169293142Y-87705238D01*
X168388380Y-78386666D02*
X169102666Y-78386666D01*
X169245523Y-78339047D01*
X169340761Y-78243809D01*
X169388380Y-78100952D01*
X169388380Y-78005714D01*
X168483619Y-78815238D02*
X168436000Y-78862857D01*
X168388380Y-78958095D01*
X168388380Y-79196190D01*
X168436000Y-79291428D01*
X168483619Y-79339047D01*
X168578857Y-79386666D01*
X168674095Y-79386666D01*
X168816952Y-79339047D01*
X169388380Y-78767619D01*
X169388380Y-79386666D01*
X168388380Y-69496666D02*
X169102666Y-69496666D01*
X169245523Y-69449047D01*
X169340761Y-69353809D01*
X169388380Y-69210952D01*
X169388380Y-69115714D01*
X168721714Y-70401428D02*
X169388380Y-70401428D01*
X168340761Y-70163333D02*
X169055047Y-69925238D01*
X169055047Y-70544285D01*
X126317285Y-45226666D02*
X125841095Y-45226666D01*
X126412523Y-45512380D02*
X126079190Y-44512380D01*
X125745857Y-45512380D01*
X124888714Y-45512380D02*
X125460142Y-45512380D01*
X125174428Y-45512380D02*
X125174428Y-44512380D01*
X125269666Y-44655238D01*
X125364904Y-44750476D01*
X125460142Y-44798095D01*
X135828066Y-61209180D02*
X136161400Y-60732990D01*
X136399495Y-61209180D02*
X136399495Y-60209180D01*
X136018542Y-60209180D01*
X135923304Y-60256800D01*
X135875685Y-60304419D01*
X135828066Y-60399657D01*
X135828066Y-60542514D01*
X135875685Y-60637752D01*
X135923304Y-60685371D01*
X136018542Y-60732990D01*
X136399495Y-60732990D01*
X135494733Y-60209180D02*
X134875685Y-60209180D01*
X135209019Y-60590133D01*
X135066161Y-60590133D01*
X134970923Y-60637752D01*
X134923304Y-60685371D01*
X134875685Y-60780609D01*
X134875685Y-61018704D01*
X134923304Y-61113942D01*
X134970923Y-61161561D01*
X135066161Y-61209180D01*
X135351876Y-61209180D01*
X135447114Y-61161561D01*
X135494733Y-61113942D01*
X145784866Y-85643980D02*
X146118200Y-85167790D01*
X146356295Y-85643980D02*
X146356295Y-84643980D01*
X145975342Y-84643980D01*
X145880104Y-84691600D01*
X145832485Y-84739219D01*
X145784866Y-84834457D01*
X145784866Y-84977314D01*
X145832485Y-85072552D01*
X145880104Y-85120171D01*
X145975342Y-85167790D01*
X146356295Y-85167790D01*
X145403914Y-84739219D02*
X145356295Y-84691600D01*
X145261057Y-84643980D01*
X145022961Y-84643980D01*
X144927723Y-84691600D01*
X144880104Y-84739219D01*
X144832485Y-84834457D01*
X144832485Y-84929695D01*
X144880104Y-85072552D01*
X145451533Y-85643980D01*
X144832485Y-85643980D01*
X145784866Y-68016380D02*
X146118200Y-67540190D01*
X146356295Y-68016380D02*
X146356295Y-67016380D01*
X145975342Y-67016380D01*
X145880104Y-67064000D01*
X145832485Y-67111619D01*
X145784866Y-67206857D01*
X145784866Y-67349714D01*
X145832485Y-67444952D01*
X145880104Y-67492571D01*
X145975342Y-67540190D01*
X146356295Y-67540190D01*
X144832485Y-68016380D02*
X145403914Y-68016380D01*
X145118200Y-68016380D02*
X145118200Y-67016380D01*
X145213438Y-67159238D01*
X145308676Y-67254476D01*
X145403914Y-67302095D01*
X141395438Y-62422019D02*
X141490676Y-62374400D01*
X141585914Y-62279161D01*
X141728771Y-62136304D01*
X141824009Y-62088685D01*
X141919247Y-62088685D01*
X141871628Y-62326780D02*
X141966866Y-62279161D01*
X142062104Y-62183923D01*
X142109723Y-61993447D01*
X142109723Y-61660114D01*
X142062104Y-61469638D01*
X141966866Y-61374400D01*
X141871628Y-61326780D01*
X141681152Y-61326780D01*
X141585914Y-61374400D01*
X141490676Y-61469638D01*
X141443057Y-61660114D01*
X141443057Y-61993447D01*
X141490676Y-62183923D01*
X141585914Y-62279161D01*
X141681152Y-62326780D01*
X141871628Y-62326780D01*
X141109723Y-61326780D02*
X140490676Y-61326780D01*
X140824009Y-61707733D01*
X140681152Y-61707733D01*
X140585914Y-61755352D01*
X140538295Y-61802971D01*
X140490676Y-61898209D01*
X140490676Y-62136304D01*
X140538295Y-62231542D01*
X140585914Y-62279161D01*
X140681152Y-62326780D01*
X140966866Y-62326780D01*
X141062104Y-62279161D01*
X141109723Y-62231542D01*
X149421838Y-90626819D02*
X149517076Y-90579200D01*
X149612314Y-90483961D01*
X149755171Y-90341104D01*
X149850409Y-90293485D01*
X149945647Y-90293485D01*
X149898028Y-90531580D02*
X149993266Y-90483961D01*
X150088504Y-90388723D01*
X150136123Y-90198247D01*
X150136123Y-89864914D01*
X150088504Y-89674438D01*
X149993266Y-89579200D01*
X149898028Y-89531580D01*
X149707552Y-89531580D01*
X149612314Y-89579200D01*
X149517076Y-89674438D01*
X149469457Y-89864914D01*
X149469457Y-90198247D01*
X149517076Y-90388723D01*
X149612314Y-90483961D01*
X149707552Y-90531580D01*
X149898028Y-90531580D01*
X149088504Y-89626819D02*
X149040885Y-89579200D01*
X148945647Y-89531580D01*
X148707552Y-89531580D01*
X148612314Y-89579200D01*
X148564695Y-89626819D01*
X148517076Y-89722057D01*
X148517076Y-89817295D01*
X148564695Y-89960152D01*
X149136123Y-90531580D01*
X148517076Y-90531580D01*
X149345638Y-72897619D02*
X149440876Y-72850000D01*
X149536114Y-72754761D01*
X149678971Y-72611904D01*
X149774209Y-72564285D01*
X149869447Y-72564285D01*
X149821828Y-72802380D02*
X149917066Y-72754761D01*
X150012304Y-72659523D01*
X150059923Y-72469047D01*
X150059923Y-72135714D01*
X150012304Y-71945238D01*
X149917066Y-71850000D01*
X149821828Y-71802380D01*
X149631352Y-71802380D01*
X149536114Y-71850000D01*
X149440876Y-71945238D01*
X149393257Y-72135714D01*
X149393257Y-72469047D01*
X149440876Y-72659523D01*
X149536114Y-72754761D01*
X149631352Y-72802380D01*
X149821828Y-72802380D01*
X148440876Y-72802380D02*
X149012304Y-72802380D01*
X148726590Y-72802380D02*
X148726590Y-71802380D01*
X148821828Y-71945238D01*
X148917066Y-72040476D01*
X149012304Y-72088095D01*
X154204895Y-73629780D02*
X154204895Y-72629780D01*
X153966800Y-72629780D01*
X153823942Y-72677400D01*
X153728704Y-72772638D01*
X153681085Y-72867876D01*
X153633466Y-73058352D01*
X153633466Y-73201209D01*
X153681085Y-73391685D01*
X153728704Y-73486923D01*
X153823942Y-73582161D01*
X153966800Y-73629780D01*
X154204895Y-73629780D01*
X153252514Y-72725019D02*
X153204895Y-72677400D01*
X153109657Y-72629780D01*
X152871561Y-72629780D01*
X152776323Y-72677400D01*
X152728704Y-72725019D01*
X152681085Y-72820257D01*
X152681085Y-72915495D01*
X152728704Y-73058352D01*
X153300133Y-73629780D01*
X152681085Y-73629780D01*
X154204895Y-91257380D02*
X154204895Y-90257380D01*
X153966800Y-90257380D01*
X153823942Y-90305000D01*
X153728704Y-90400238D01*
X153681085Y-90495476D01*
X153633466Y-90685952D01*
X153633466Y-90828809D01*
X153681085Y-91019285D01*
X153728704Y-91114523D01*
X153823942Y-91209761D01*
X153966800Y-91257380D01*
X154204895Y-91257380D01*
X152681085Y-91257380D02*
X153252514Y-91257380D01*
X152966800Y-91257380D02*
X152966800Y-90257380D01*
X153062038Y-90400238D01*
X153157276Y-90495476D01*
X153252514Y-90543095D01*
X153707371Y-58431247D02*
X153754990Y-58574104D01*
X153802609Y-58621723D01*
X153897847Y-58669342D01*
X154040704Y-58669342D01*
X154135942Y-58621723D01*
X154183561Y-58574104D01*
X154231180Y-58478866D01*
X154231180Y-58097914D01*
X153231180Y-58097914D01*
X153231180Y-58431247D01*
X153278800Y-58526485D01*
X153326419Y-58574104D01*
X153421657Y-58621723D01*
X153516895Y-58621723D01*
X153612133Y-58574104D01*
X153659752Y-58526485D01*
X153707371Y-58431247D01*
X153707371Y-58097914D01*
X153231180Y-59002676D02*
X153231180Y-59669342D01*
X154231180Y-59002676D01*
X154231180Y-59669342D01*
X154231180Y-60574104D02*
X154231180Y-60002676D01*
X154231180Y-60288390D02*
X153231180Y-60288390D01*
X153374038Y-60193152D01*
X153469276Y-60097914D01*
X153516895Y-60002676D01*
X149859752Y-64683628D02*
X149097847Y-64683628D01*
X149478800Y-65064580D02*
X149478800Y-64302676D01*
X162520380Y-58950266D02*
X163234666Y-58950266D01*
X163377523Y-58902647D01*
X163472761Y-58807409D01*
X163520380Y-58664552D01*
X163520380Y-58569314D01*
X163520380Y-59950266D02*
X163520380Y-59378838D01*
X163520380Y-59664552D02*
X162520380Y-59664552D01*
X162663238Y-59569314D01*
X162758476Y-59474076D01*
X162806095Y-59378838D01*
X152566666Y-83956142D02*
X152614285Y-84003761D01*
X152757142Y-84051380D01*
X152852380Y-84051380D01*
X152995238Y-84003761D01*
X153090476Y-83908523D01*
X153138095Y-83813285D01*
X153185714Y-83622809D01*
X153185714Y-83479952D01*
X153138095Y-83289476D01*
X153090476Y-83194238D01*
X152995238Y-83099000D01*
X152852380Y-83051380D01*
X152757142Y-83051380D01*
X152614285Y-83099000D01*
X152566666Y-83146619D01*
X151614285Y-84051380D02*
X152185714Y-84051380D01*
X151900000Y-84051380D02*
X151900000Y-83051380D01*
X151995238Y-83194238D01*
X152090476Y-83289476D01*
X152185714Y-83337095D01*
X149528190Y-82592380D02*
X149528190Y-81592380D01*
X148480571Y-82497142D02*
X148528190Y-82544761D01*
X148671047Y-82592380D01*
X148766285Y-82592380D01*
X148909142Y-82544761D01*
X149004380Y-82449523D01*
X149052000Y-82354285D01*
X149099619Y-82163809D01*
X149099619Y-82020952D01*
X149052000Y-81830476D01*
X149004380Y-81735238D01*
X148909142Y-81640000D01*
X148766285Y-81592380D01*
X148671047Y-81592380D01*
X148528190Y-81640000D01*
X148480571Y-81687619D01*
X147528190Y-82592380D02*
X148099619Y-82592380D01*
X147813904Y-82592380D02*
X147813904Y-81592380D01*
X147909142Y-81735238D01*
X148004380Y-81830476D01*
X148099619Y-81878095D01*
D13*
X166046000Y-86040000D02*
X162626000Y-86040000D01*
X166626000Y-84970000D02*
X161626000Y-84970000D01*
X162626000Y-90250000D02*
X162626000Y-84970000D01*
X159426000Y-84970000D02*
X161626000Y-84970000D01*
X166126000Y-86360000D02*
X166046000Y-86040000D01*
X162626000Y-86040000D02*
X162626000Y-86360000D01*
X161626000Y-87690000D02*
X161626000Y-87530000D01*
X167846000Y-83750000D02*
X159426000Y-83750000D01*
X166626000Y-90250000D02*
X161626000Y-90250000D01*
X166626000Y-91470000D02*
X166626000Y-90250000D01*
X162626000Y-88860000D02*
X162626000Y-89180000D01*
X162626000Y-89180000D02*
X166046000Y-89180000D01*
X166126000Y-88860000D02*
X166046000Y-88540000D01*
X159426000Y-90250000D02*
X159426000Y-91470000D01*
X162626000Y-86360000D02*
X162626000Y-86680000D01*
X159426000Y-83750000D02*
X159426000Y-84970000D01*
X167846000Y-91470000D02*
X167846000Y-83750000D01*
X166046000Y-86680000D02*
X166126000Y-86360000D01*
X166046000Y-89180000D02*
X166126000Y-88860000D01*
X159426000Y-91470000D02*
X167846000Y-91470000D01*
X162626000Y-88540000D02*
X162626000Y-88860000D01*
X161626000Y-84970000D02*
X161626000Y-83750000D01*
X161626000Y-90250000D02*
X161626000Y-91470000D01*
X166046000Y-88540000D02*
X162626000Y-88540000D01*
X166626000Y-83750000D02*
X166626000Y-84970000D01*
X161626000Y-90250000D02*
X159426000Y-90250000D01*
X162626000Y-86680000D02*
X166046000Y-86680000D01*
X162626000Y-77790000D02*
X166046000Y-77790000D01*
X161626000Y-81360000D02*
X159426000Y-81360000D01*
X166626000Y-74860000D02*
X166626000Y-76080000D01*
X166046000Y-79650000D02*
X162626000Y-79650000D01*
X161626000Y-81360000D02*
X161626000Y-82580000D01*
X161626000Y-76080000D02*
X161626000Y-74860000D01*
X162626000Y-79650000D02*
X162626000Y-79970000D01*
X159426000Y-82580000D02*
X167846000Y-82580000D01*
X166046000Y-80290000D02*
X166126000Y-79970000D01*
X166046000Y-77790000D02*
X166126000Y-77470000D01*
X167846000Y-82580000D02*
X167846000Y-74860000D01*
X159426000Y-74860000D02*
X159426000Y-76080000D01*
X162626000Y-77470000D02*
X162626000Y-77790000D01*
X159426000Y-81360000D02*
X159426000Y-82580000D01*
X166126000Y-79970000D02*
X166046000Y-79650000D01*
X162626000Y-80290000D02*
X166046000Y-80290000D01*
X162626000Y-79970000D02*
X162626000Y-80290000D01*
X166626000Y-82580000D02*
X166626000Y-81360000D01*
X166626000Y-81360000D02*
X161626000Y-81360000D01*
X167846000Y-74860000D02*
X159426000Y-74860000D01*
X161626000Y-78800000D02*
X161626000Y-78640000D01*
X162626000Y-77150000D02*
X162626000Y-77470000D01*
X166126000Y-77470000D02*
X166046000Y-77150000D01*
X159426000Y-76080000D02*
X161626000Y-76080000D01*
X162626000Y-81360000D02*
X162626000Y-76080000D01*
X166626000Y-76080000D02*
X161626000Y-76080000D01*
X166046000Y-77150000D02*
X162626000Y-77150000D01*
X162626000Y-68900000D02*
X166046000Y-68900000D01*
X161626000Y-72470000D02*
X159426000Y-72470000D01*
X166626000Y-65970000D02*
X166626000Y-67190000D01*
X166046000Y-70760000D02*
X162626000Y-70760000D01*
X161626000Y-72470000D02*
X161626000Y-73690000D01*
X161626000Y-67190000D02*
X161626000Y-65970000D01*
X162626000Y-70760000D02*
X162626000Y-71080000D01*
X159426000Y-73690000D02*
X167846000Y-73690000D01*
X166046000Y-71400000D02*
X166126000Y-71080000D01*
X166046000Y-68900000D02*
X166126000Y-68580000D01*
X167846000Y-73690000D02*
X167846000Y-65970000D01*
X159426000Y-65970000D02*
X159426000Y-67190000D01*
X162626000Y-68580000D02*
X162626000Y-68900000D01*
X159426000Y-72470000D02*
X159426000Y-73690000D01*
X166126000Y-71080000D02*
X166046000Y-70760000D01*
X162626000Y-71400000D02*
X166046000Y-71400000D01*
X162626000Y-71080000D02*
X162626000Y-71400000D01*
X166626000Y-73690000D02*
X166626000Y-72470000D01*
X166626000Y-72470000D02*
X161626000Y-72470000D01*
X167846000Y-65970000D02*
X159426000Y-65970000D01*
X161626000Y-69910000D02*
X161626000Y-69750000D01*
X162626000Y-68260000D02*
X162626000Y-68580000D01*
X166126000Y-68580000D02*
X166046000Y-68260000D01*
X159426000Y-67190000D02*
X161626000Y-67190000D01*
X162626000Y-72470000D02*
X162626000Y-67190000D01*
X166626000Y-67190000D02*
X161626000Y-67190000D01*
X166046000Y-68260000D02*
X162626000Y-68260000D01*
G36*
X157151331Y-62803950D02*
G01*
X157137710Y-62895771D01*
X157115156Y-62985813D01*
X157083884Y-63073212D01*
X157044196Y-63157125D01*
X156996475Y-63236743D01*
X156941179Y-63311301D01*
X156878842Y-63380079D01*
X156810063Y-63442417D01*
X156735506Y-63497712D01*
X156655887Y-63545434D01*
X156571975Y-63585122D01*
X156484576Y-63616393D01*
X156394533Y-63638948D01*
X156302713Y-63652568D01*
X156210000Y-63657123D01*
X156117287Y-63652568D01*
X156025467Y-63638948D01*
X155935424Y-63616393D01*
X155848025Y-63585122D01*
X155764113Y-63545434D01*
X155684494Y-63497712D01*
X155609937Y-63442417D01*
X155541158Y-63380079D01*
X155478821Y-63311301D01*
X155423525Y-63236743D01*
X155375804Y-63157125D01*
X155336116Y-63073212D01*
X155304844Y-62985813D01*
X155282290Y-62895771D01*
X155268669Y-62803950D01*
X155264115Y-62711237D01*
X155264115Y-61844952D01*
X155918376Y-61844952D01*
X155941951Y-61905198D01*
X156012674Y-61951473D01*
X156452729Y-62180232D01*
X156012674Y-62408991D01*
X155964652Y-62437804D01*
X155934966Y-62468363D01*
X155920122Y-62524243D01*
X155956794Y-62620287D01*
X156012674Y-62688391D01*
X156072046Y-62711092D01*
X156168090Y-62676167D01*
X156788009Y-62314693D01*
X156841269Y-62258813D01*
X156864844Y-62182851D01*
X156846508Y-62111255D01*
X156808964Y-62063233D01*
X156789755Y-62047517D01*
X156168090Y-61684297D01*
X156073792Y-61649372D01*
X156013110Y-61672073D01*
X155956794Y-61740177D01*
X155918376Y-61844952D01*
X155264115Y-61844952D01*
X155264115Y-61073983D01*
X155556902Y-61073983D01*
X155573104Y-61205436D01*
X155621708Y-61319234D01*
X155702714Y-61415374D01*
X155804482Y-61488135D01*
X155915369Y-61531791D01*
X156035375Y-61546343D01*
X156132292Y-61535429D01*
X156223970Y-61502687D01*
X156304298Y-61454665D01*
X156367163Y-61397912D01*
X156463643Y-61275674D01*
X156522579Y-61167407D01*
X156540041Y-61123751D01*
X156548773Y-61123751D01*
X156548773Y-61443314D01*
X156565362Y-61545470D01*
X156616003Y-61586507D01*
X156705062Y-61596984D01*
X156793248Y-61585634D01*
X156838650Y-61548089D01*
X156859605Y-61439822D01*
X156859605Y-60757038D01*
X156812456Y-60648771D01*
X156702442Y-60603368D01*
X156611856Y-60619739D01*
X156528691Y-60668853D01*
X156454912Y-60741104D01*
X156392483Y-60826888D01*
X156336167Y-60919439D01*
X156280723Y-61011991D01*
X156222005Y-61097775D01*
X156155866Y-61170026D01*
X156083833Y-61219140D01*
X156007435Y-61235511D01*
X155962906Y-61223287D01*
X155915757Y-61196220D01*
X155881705Y-61149944D01*
X155865989Y-61062632D01*
X155907026Y-60965715D01*
X155988226Y-60919439D01*
X156028390Y-60912454D01*
X156038867Y-60912454D01*
X156096494Y-60909835D01*
X156140150Y-60893246D01*
X156171583Y-60846097D01*
X156182060Y-60757038D01*
X156165471Y-60659685D01*
X156115703Y-60612099D01*
X156026644Y-60603368D01*
X155909742Y-60617823D01*
X155801183Y-60661188D01*
X155700968Y-60733464D01*
X155620932Y-60829119D01*
X155572910Y-60942626D01*
X155556902Y-61073983D01*
X155264115Y-61073983D01*
X155264115Y-60328334D01*
X155574365Y-60328334D01*
X155583096Y-60411281D01*
X155603178Y-60456683D01*
X155640722Y-60481131D01*
X155733274Y-60489862D01*
X156705935Y-60489862D01*
X156766181Y-60487243D01*
X156812456Y-60470653D01*
X156847818Y-60424378D01*
X156859605Y-60334446D01*
X156848254Y-60246697D01*
X156814203Y-60199984D01*
X156766181Y-60183395D01*
X156702442Y-60180776D01*
X156079031Y-60180776D01*
X156099986Y-60158074D01*
X156154120Y-60035837D01*
X156093001Y-59930189D01*
X155984734Y-59875182D01*
X155881705Y-59938047D01*
X155623260Y-60224432D01*
X155619767Y-60229671D01*
X155574365Y-60328334D01*
X155264115Y-60328334D01*
X155264115Y-59237801D01*
X156337476Y-59237801D01*
X156351883Y-59315509D01*
X156395103Y-59353053D01*
X156475430Y-59363531D01*
X156554884Y-59353926D01*
X156597668Y-59323367D01*
X156613384Y-59236054D01*
X156613384Y-58820447D01*
X156598541Y-58742302D01*
X156554011Y-58703448D01*
X156473684Y-58694717D01*
X156395103Y-58705194D01*
X156353193Y-58738373D01*
X156337476Y-58822193D01*
X156337476Y-59237801D01*
X155264115Y-59237801D01*
X155264115Y-57316926D01*
X155918376Y-57316926D01*
X155941951Y-57377171D01*
X156012674Y-57423447D01*
X156452729Y-57652206D01*
X156012674Y-57880964D01*
X155964652Y-57909778D01*
X155934966Y-57940337D01*
X155920122Y-57996217D01*
X155956794Y-58092261D01*
X156012674Y-58160364D01*
X156072046Y-58183066D01*
X156168090Y-58148141D01*
X156788009Y-57786667D01*
X156841269Y-57730787D01*
X156864844Y-57654825D01*
X156846508Y-57583229D01*
X156808964Y-57535207D01*
X156789755Y-57519491D01*
X156168090Y-57156271D01*
X156073792Y-57121346D01*
X156013110Y-57144047D01*
X155956794Y-57212151D01*
X155918376Y-57316926D01*
X155264115Y-57316926D01*
X155264115Y-56592232D01*
X155555156Y-56592232D01*
X155571358Y-56732126D01*
X155619962Y-56846796D01*
X155700968Y-56936243D01*
X155807586Y-57000272D01*
X155933025Y-57038690D01*
X156077285Y-57051496D01*
X156206298Y-57043952D01*
X156326510Y-57021320D01*
X156437921Y-56983601D01*
X156540530Y-56930795D01*
X156634339Y-56862901D01*
X156714806Y-56781945D01*
X156777392Y-56689952D01*
X156822096Y-56586923D01*
X156848918Y-56472858D01*
X156857859Y-56347757D01*
X156857859Y-56337279D01*
X156840396Y-56242982D01*
X156791065Y-56206311D01*
X156702442Y-56194087D01*
X156605526Y-56210676D01*
X156559250Y-56260444D01*
X156548773Y-56361727D01*
X156524325Y-56500554D01*
X156464952Y-56604456D01*
X156396849Y-56666011D01*
X156335730Y-56700499D01*
X156311283Y-56709231D01*
X156340969Y-56578262D01*
X156328260Y-56469509D01*
X156290133Y-56371428D01*
X156226589Y-56284019D01*
X156147135Y-56215624D01*
X156061278Y-56174587D01*
X155969017Y-56160908D01*
X155857840Y-56174878D01*
X155759467Y-56216788D01*
X155673901Y-56286638D01*
X155607932Y-56376473D01*
X155568350Y-56478338D01*
X155555156Y-56592232D01*
X155264115Y-56592232D01*
X155264115Y-56160763D01*
X155268669Y-56068050D01*
X155282290Y-55976230D01*
X155304844Y-55886187D01*
X155336116Y-55798788D01*
X155375804Y-55714875D01*
X155423525Y-55635257D01*
X155478821Y-55560699D01*
X155541158Y-55491921D01*
X155609937Y-55429583D01*
X155684494Y-55374288D01*
X155764113Y-55326566D01*
X155848025Y-55286878D01*
X155935424Y-55255607D01*
X156025467Y-55233052D01*
X156117287Y-55219432D01*
X156210000Y-55214877D01*
X156302713Y-55219432D01*
X156394533Y-55233052D01*
X156484576Y-55255607D01*
X156571975Y-55286878D01*
X156655887Y-55326566D01*
X156735506Y-55374288D01*
X156810063Y-55429583D01*
X156878842Y-55491921D01*
X156941179Y-55560699D01*
X156996475Y-55635257D01*
X157044196Y-55714875D01*
X157083884Y-55798788D01*
X157115156Y-55886187D01*
X157137710Y-55976230D01*
X157151331Y-56068050D01*
X157155885Y-56160763D01*
X157155885Y-62711237D01*
X157151331Y-62803950D01*
G37*
G36*
X156033629Y-56495315D02*
G01*
X156068554Y-56593978D01*
X156036248Y-56697880D01*
X155971637Y-56733678D01*
X155920996Y-56729313D01*
X155881705Y-56710977D01*
X155841541Y-56599217D01*
X155870791Y-56498371D01*
X155958540Y-56464756D01*
X156033629Y-56495315D01*
G37*
G36*
X157137428Y-81303306D02*
G01*
X157124009Y-81393770D01*
X157101787Y-81482483D01*
X157070978Y-81568591D01*
X157031876Y-81651264D01*
X156984859Y-81729707D01*
X156930380Y-81803163D01*
X156868964Y-81870926D01*
X156801201Y-81932343D01*
X156727744Y-81986822D01*
X156649302Y-82033838D01*
X156566629Y-82072940D01*
X156480521Y-82103750D01*
X156391808Y-82125971D01*
X156301344Y-82139390D01*
X156210000Y-82143878D01*
X156118656Y-82139390D01*
X156028192Y-82125971D01*
X155939479Y-82103750D01*
X155853371Y-82072940D01*
X155770698Y-82033838D01*
X155692256Y-81986822D01*
X155618799Y-81932343D01*
X155551036Y-81870926D01*
X155489620Y-81803163D01*
X155435141Y-81729707D01*
X155388124Y-81651264D01*
X155349022Y-81568591D01*
X155318213Y-81482483D01*
X155295991Y-81393770D01*
X155282572Y-81303306D01*
X155278085Y-81211962D01*
X155278085Y-80750807D01*
X155570872Y-80750807D01*
X155583290Y-80852283D01*
X155620544Y-80951820D01*
X155682632Y-81049416D01*
X155746371Y-81114463D01*
X155829317Y-81166414D01*
X155927107Y-81200466D01*
X156035375Y-81211817D01*
X156143424Y-81200466D01*
X156240559Y-81166414D01*
X156322851Y-81114463D01*
X156386371Y-81049416D01*
X156448460Y-80951626D01*
X156485713Y-80851507D01*
X156498131Y-80749061D01*
X156498131Y-80530779D01*
X156695458Y-80530779D01*
X156755703Y-80528160D01*
X156801979Y-80511571D01*
X156837340Y-80465295D01*
X156849128Y-80375363D01*
X156832975Y-80278446D01*
X156784516Y-80232171D01*
X156693711Y-80221693D01*
X155724542Y-80221693D01*
X155664297Y-80224313D01*
X155618021Y-80240902D01*
X155582660Y-80287178D01*
X155570872Y-80377109D01*
X155570872Y-80750807D01*
X155278085Y-80750807D01*
X155278085Y-79927450D01*
X155572619Y-79927450D01*
X155584406Y-80016727D01*
X155619767Y-80062784D01*
X155666916Y-80079374D01*
X155728035Y-80081993D01*
X156697204Y-80081993D01*
X156792811Y-80065404D01*
X156838650Y-80015636D01*
X156849128Y-79931816D01*
X156840396Y-79851488D01*
X156819441Y-79806086D01*
X156784516Y-79781638D01*
X156693711Y-79772907D01*
X156108717Y-79772907D01*
X156178786Y-79719210D01*
X156280723Y-79645431D01*
X156376549Y-79576890D01*
X156428281Y-79538909D01*
X156469318Y-79507477D01*
X156500751Y-79464694D01*
X156520832Y-79391351D01*
X156502497Y-79319755D01*
X156466699Y-79273479D01*
X156447490Y-79259509D01*
X156379168Y-79207558D01*
X156261514Y-79121556D01*
X156152155Y-79042101D01*
X156108717Y-79009796D01*
X156697204Y-79009796D01*
X156757449Y-79007176D01*
X156801979Y-78990587D01*
X156837340Y-78943438D01*
X156849128Y-78854379D01*
X156837340Y-78767940D01*
X156801979Y-78721664D01*
X156756576Y-78705075D01*
X156693711Y-78702456D01*
X155724542Y-78702456D01*
X155664297Y-78705075D01*
X155618021Y-78721664D01*
X155583969Y-78768813D01*
X155572619Y-78857872D01*
X155583969Y-78939073D01*
X155607544Y-78983602D01*
X155618021Y-78994079D01*
X156138404Y-79390478D01*
X155991928Y-79501330D01*
X155866827Y-79596396D01*
X155763100Y-79675676D01*
X155680747Y-79739169D01*
X155619767Y-79786877D01*
X155584406Y-79836863D01*
X155572619Y-79927450D01*
X155278085Y-79927450D01*
X155278085Y-78435279D01*
X155570872Y-78435279D01*
X155573492Y-78495525D01*
X155590081Y-78541801D01*
X155636357Y-78577162D01*
X155726289Y-78588949D01*
X155823206Y-78572797D01*
X155869481Y-78524338D01*
X155879959Y-78433533D01*
X155879959Y-77897434D01*
X156056330Y-77897434D01*
X156056330Y-78243192D01*
X156058949Y-78303438D01*
X156075539Y-78349713D01*
X156121814Y-78385075D01*
X156211746Y-78396862D01*
X156308663Y-78380273D01*
X156354939Y-78330504D01*
X156365416Y-78239699D01*
X156365416Y-77897434D01*
X156541787Y-77897434D01*
X156541787Y-78435279D01*
X156544407Y-78495525D01*
X156560996Y-78541801D01*
X156607272Y-78577162D01*
X156697204Y-78588949D01*
X156794121Y-78572797D01*
X156840396Y-78524338D01*
X156850874Y-78433533D01*
X156850874Y-77742018D01*
X156834284Y-77645101D01*
X156784516Y-77598826D01*
X156695458Y-77588348D01*
X155724542Y-77588348D01*
X155603178Y-77621527D01*
X155570872Y-77747257D01*
X155570872Y-78435279D01*
X155278085Y-78435279D01*
X155278085Y-77366574D01*
X155569126Y-77366574D01*
X155582223Y-77448648D01*
X155623260Y-77483573D01*
X155696602Y-77492304D01*
X155769072Y-77483573D01*
X155806616Y-77453887D01*
X155822332Y-77364828D01*
X155822332Y-77031294D01*
X156700696Y-77031294D01*
X156760069Y-77028675D01*
X156804598Y-77012959D01*
X156840396Y-76966683D01*
X156850874Y-76879371D01*
X156840396Y-76792931D01*
X156804598Y-76747529D01*
X156759196Y-76731813D01*
X156698950Y-76729193D01*
X155822332Y-76729193D01*
X155822332Y-76393913D01*
X155809236Y-76311839D01*
X155768199Y-76276914D01*
X155694856Y-76268183D01*
X155622387Y-76276914D01*
X155584842Y-76306601D01*
X155569126Y-76395659D01*
X155569126Y-77366574D01*
X155278085Y-77366574D01*
X155278085Y-76268038D01*
X155282572Y-76176694D01*
X155295991Y-76086230D01*
X155318213Y-75997517D01*
X155349022Y-75911409D01*
X155388124Y-75828736D01*
X155435141Y-75750293D01*
X155489620Y-75676837D01*
X155551036Y-75609074D01*
X155618799Y-75547657D01*
X155692256Y-75493178D01*
X155770698Y-75446162D01*
X155853371Y-75407060D01*
X155939479Y-75376250D01*
X156028192Y-75354029D01*
X156118656Y-75340610D01*
X156210000Y-75336122D01*
X156301344Y-75340610D01*
X156391808Y-75354029D01*
X156480521Y-75376250D01*
X156566629Y-75407060D01*
X156649302Y-75446162D01*
X156727744Y-75493178D01*
X156801201Y-75547657D01*
X156868964Y-75609074D01*
X156930380Y-75676837D01*
X156984859Y-75750293D01*
X157031876Y-75828736D01*
X157070978Y-75911409D01*
X157101787Y-75997517D01*
X157124009Y-76086230D01*
X157137428Y-76176694D01*
X157141915Y-76268038D01*
X157141915Y-81211962D01*
X157137428Y-81303306D01*
G37*
G36*
X156189045Y-80750807D02*
G01*
X156150627Y-80853836D01*
X156035375Y-80904477D01*
X155919249Y-80853836D01*
X155879959Y-80749061D01*
X155879959Y-80530779D01*
X156189045Y-80530779D01*
X156189045Y-80750807D01*
G37*
G36*
X157145248Y-89505181D02*
G01*
X157131716Y-89596407D01*
X157109307Y-89685869D01*
X157078238Y-89772703D01*
X157038806Y-89856073D01*
X156991393Y-89935177D01*
X156936455Y-90009253D01*
X156874520Y-90077587D01*
X156806186Y-90139522D01*
X156732110Y-90194460D01*
X156653006Y-90241873D01*
X156569636Y-90281304D01*
X156482802Y-90312374D01*
X156393341Y-90334783D01*
X156302114Y-90348315D01*
X156210000Y-90352840D01*
X156117886Y-90348315D01*
X156026659Y-90334783D01*
X155937198Y-90312374D01*
X155850364Y-90281304D01*
X155766994Y-90241873D01*
X155687890Y-90194460D01*
X155613814Y-90139522D01*
X155545480Y-90077587D01*
X155483545Y-90009253D01*
X155428607Y-89935177D01*
X155381194Y-89856073D01*
X155341762Y-89772703D01*
X155310693Y-89685869D01*
X155288284Y-89596407D01*
X155274752Y-89505181D01*
X155270226Y-89413067D01*
X155270226Y-89254886D01*
X155563014Y-89254886D01*
X155571746Y-89335213D01*
X155592701Y-89380616D01*
X155629372Y-89402444D01*
X155718431Y-89412921D01*
X156687599Y-89412921D01*
X156748718Y-89410302D01*
X156794121Y-89393713D01*
X156829482Y-89347437D01*
X156841269Y-89257505D01*
X156830792Y-89163208D01*
X156797613Y-89119551D01*
X156633078Y-88996053D01*
X156488721Y-88887494D01*
X156364543Y-88793876D01*
X156260544Y-88715197D01*
X156176724Y-88651459D01*
X156113083Y-88602661D01*
X156687599Y-88602661D01*
X156748718Y-88600042D01*
X156794121Y-88583453D01*
X156829482Y-88537177D01*
X156841269Y-88447245D01*
X156829482Y-88359933D01*
X156794121Y-88314530D01*
X156746972Y-88297941D01*
X156685853Y-88295321D01*
X155711446Y-88295321D01*
X155614529Y-88311911D01*
X155573492Y-88361679D01*
X155563014Y-88447245D01*
X155572619Y-88530192D01*
X155594447Y-88572975D01*
X155639849Y-88613139D01*
X155797448Y-88729167D01*
X155936130Y-88831614D01*
X156055893Y-88920479D01*
X156156739Y-88995762D01*
X156238668Y-89057462D01*
X156301678Y-89105581D01*
X155711446Y-89105581D01*
X155614529Y-89122171D01*
X155573492Y-89171939D01*
X155563014Y-89254886D01*
X155270226Y-89254886D01*
X155270226Y-87558404D01*
X155561268Y-87558404D01*
X155583969Y-87640478D01*
X155652073Y-87698104D01*
X156626481Y-88169591D01*
X156715539Y-88199278D01*
X156775348Y-88173957D01*
X156829046Y-88097995D01*
X156858732Y-88004571D01*
X156843016Y-87948691D01*
X156809837Y-87917258D01*
X156757449Y-87890191D01*
X156568854Y-87799386D01*
X156568854Y-87315675D01*
X156757449Y-87224870D01*
X156808091Y-87197803D01*
X156840396Y-87166371D01*
X156856986Y-87110491D01*
X156827299Y-87017066D01*
X156774912Y-86941104D01*
X156715539Y-86915784D01*
X156626481Y-86945470D01*
X155650327Y-87416958D01*
X155585716Y-87475457D01*
X155561268Y-87558404D01*
X155270226Y-87558404D01*
X155270226Y-86694010D01*
X155561268Y-86694010D01*
X155563887Y-86754256D01*
X155580477Y-86799658D01*
X155627626Y-86835456D01*
X155716684Y-86845934D01*
X155805743Y-86835456D01*
X155852019Y-86798785D01*
X155867735Y-86752509D01*
X155870354Y-86690518D01*
X155870354Y-86156165D01*
X156046726Y-86156165D01*
X156046726Y-86500176D01*
X156049345Y-86562168D01*
X156065934Y-86608444D01*
X156113520Y-86642496D01*
X156203888Y-86653846D01*
X156301242Y-86637257D01*
X156348827Y-86587489D01*
X156357558Y-86498430D01*
X156357558Y-86156165D01*
X156687599Y-86156165D01*
X156748718Y-86153546D01*
X156794121Y-86136956D01*
X156829482Y-86090681D01*
X156841269Y-86000749D01*
X156824680Y-85903832D01*
X156774912Y-85857556D01*
X156685853Y-85847079D01*
X155714938Y-85847079D01*
X155593574Y-85880258D01*
X155561268Y-86005988D01*
X155561268Y-86694010D01*
X155270226Y-86694010D01*
X155270226Y-85846933D01*
X155274752Y-85754819D01*
X155288284Y-85663593D01*
X155310693Y-85574131D01*
X155341762Y-85487297D01*
X155381194Y-85403927D01*
X155428607Y-85324823D01*
X155483545Y-85250747D01*
X155545480Y-85182413D01*
X155613814Y-85120478D01*
X155687890Y-85065540D01*
X155766994Y-85018127D01*
X155850364Y-84978696D01*
X155937198Y-84947626D01*
X156026659Y-84925217D01*
X156117886Y-84911685D01*
X156210000Y-84907160D01*
X156302114Y-84911685D01*
X156393341Y-84925217D01*
X156482802Y-84947626D01*
X156569636Y-84978696D01*
X156653006Y-85018127D01*
X156732110Y-85065540D01*
X156806186Y-85120478D01*
X156874520Y-85182413D01*
X156936455Y-85250747D01*
X156991393Y-85324823D01*
X157038806Y-85403927D01*
X157078238Y-85487297D01*
X157109307Y-85574131D01*
X157131716Y-85663593D01*
X157145248Y-85754819D01*
X157149774Y-85846933D01*
X157149774Y-89413067D01*
X157145248Y-89505181D01*
G37*
G36*
X156310409Y-87673656D02*
G01*
X156071173Y-87556658D01*
X156310409Y-87441405D01*
X156310409Y-87673656D01*
G37*
G36*
X157155675Y-71477367D02*
G01*
X157141992Y-71569611D01*
X157119334Y-71660069D01*
X157087917Y-71747871D01*
X157048047Y-71832171D01*
X157000105Y-71912157D01*
X156944554Y-71987059D01*
X156881929Y-72056155D01*
X156812833Y-72118780D01*
X156737931Y-72174331D01*
X156657945Y-72222273D01*
X156573645Y-72262144D01*
X156485843Y-72293560D01*
X156395385Y-72316218D01*
X156303141Y-72329901D01*
X156210000Y-72334477D01*
X156116859Y-72329901D01*
X156024615Y-72316218D01*
X155934157Y-72293560D01*
X155846355Y-72262144D01*
X155762055Y-72222273D01*
X155682069Y-72174331D01*
X155607167Y-72118780D01*
X155538071Y-72056155D01*
X155475446Y-71987059D01*
X155419895Y-71912157D01*
X155371953Y-71832171D01*
X155332083Y-71747871D01*
X155300666Y-71660069D01*
X155278008Y-71569611D01*
X155264325Y-71477367D01*
X155259749Y-71384226D01*
X155259749Y-70910847D01*
X155571746Y-70910847D01*
X155584163Y-71012323D01*
X155621417Y-71111860D01*
X155683506Y-71209456D01*
X155747244Y-71273194D01*
X155830191Y-71324708D01*
X155927981Y-71358760D01*
X156036248Y-71370111D01*
X156160038Y-71355559D01*
X156268305Y-71311902D01*
X156361051Y-71239142D01*
X156432647Y-71269410D01*
X156524034Y-71308992D01*
X156635212Y-71357887D01*
X156726017Y-71384081D01*
X156787136Y-71357014D01*
X156837777Y-71275813D01*
X156862224Y-71185881D01*
X156845635Y-71130001D01*
X156811583Y-71097696D01*
X156761718Y-71074800D01*
X156656361Y-71029398D01*
X156495512Y-70961488D01*
X156499004Y-70907354D01*
X156499004Y-70687327D01*
X156696331Y-70687327D01*
X156756576Y-70684707D01*
X156802852Y-70668118D01*
X156838213Y-70621842D01*
X156850001Y-70531911D01*
X156833848Y-70434994D01*
X156785389Y-70388718D01*
X156694584Y-70378241D01*
X155725416Y-70378241D01*
X155665170Y-70380860D01*
X155618894Y-70397449D01*
X155583533Y-70443725D01*
X155571746Y-70533657D01*
X155571746Y-70910847D01*
X155259749Y-70910847D01*
X155259749Y-69782769D01*
X155550791Y-69782769D01*
X155557557Y-69882960D01*
X155577858Y-69973984D01*
X155632864Y-70093602D01*
X155666043Y-70137258D01*
X155751609Y-70191392D01*
X155847653Y-70149482D01*
X155913138Y-70089236D01*
X155934966Y-70027244D01*
X155900041Y-69936439D01*
X155882578Y-69916357D01*
X155859877Y-69889291D01*
X155837176Y-69795866D01*
X155864242Y-69701569D01*
X155939331Y-69664024D01*
X156017039Y-69708554D01*
X156057203Y-69819441D01*
X156070518Y-69888854D01*
X156089509Y-69964379D01*
X156113738Y-70039905D01*
X156142769Y-70109318D01*
X156185771Y-70170219D01*
X156251910Y-70220205D01*
X156338568Y-70253602D01*
X156443124Y-70264734D01*
X156549864Y-70253384D01*
X156643070Y-70219332D01*
X156719687Y-70166944D01*
X156776658Y-70100587D01*
X156828075Y-70004155D01*
X156858926Y-69903455D01*
X156869209Y-69798486D01*
X156864189Y-69718595D01*
X156849128Y-69643069D01*
X156799359Y-69524324D01*
X156744353Y-69445743D01*
X156691092Y-69395102D01*
X156671883Y-69379386D01*
X156571474Y-69333983D01*
X156519741Y-69352755D01*
X156453602Y-69409072D01*
X156411692Y-69501623D01*
X156433520Y-69560122D01*
X156499004Y-69637831D01*
X156555757Y-69707681D01*
X156582824Y-69791501D01*
X156568078Y-69881724D01*
X156523840Y-69935857D01*
X156450109Y-69953902D01*
X156382879Y-69909372D01*
X156343588Y-69798486D01*
X156327654Y-69729509D01*
X156304297Y-69655293D01*
X156274830Y-69581077D01*
X156240559Y-69512101D01*
X156193192Y-69451200D01*
X156124434Y-69401214D01*
X156036903Y-69367817D01*
X155933219Y-69356684D01*
X155835138Y-69369393D01*
X155745789Y-69407520D01*
X155665170Y-69471064D01*
X155601626Y-69556533D01*
X155563499Y-69660435D01*
X155550791Y-69782769D01*
X155259749Y-69782769D01*
X155259749Y-68764706D01*
X155550791Y-68764706D01*
X155557557Y-68864897D01*
X155577858Y-68955920D01*
X155632864Y-69075538D01*
X155666043Y-69119194D01*
X155751609Y-69173328D01*
X155847653Y-69131418D01*
X155913138Y-69071172D01*
X155934966Y-69009181D01*
X155900041Y-68918376D01*
X155882578Y-68898294D01*
X155859877Y-68871227D01*
X155837176Y-68777802D01*
X155864242Y-68683505D01*
X155939331Y-68645961D01*
X156017039Y-68690490D01*
X156057203Y-68801377D01*
X156070518Y-68870790D01*
X156089509Y-68946316D01*
X156113738Y-69021841D01*
X156142769Y-69091254D01*
X156185771Y-69152155D01*
X156251910Y-69202141D01*
X156338568Y-69235538D01*
X156443124Y-69246671D01*
X156549864Y-69235320D01*
X156643070Y-69201268D01*
X156719687Y-69148881D01*
X156776658Y-69082523D01*
X156828075Y-68986091D01*
X156858926Y-68885391D01*
X156869209Y-68780422D01*
X156864189Y-68700531D01*
X156849128Y-68625006D01*
X156799359Y-68506261D01*
X156744353Y-68427679D01*
X156691092Y-68377038D01*
X156671883Y-68361322D01*
X156571474Y-68315919D01*
X156519741Y-68334692D01*
X156453602Y-68391008D01*
X156411692Y-68483559D01*
X156433520Y-68542059D01*
X156499004Y-68619767D01*
X156555757Y-68689617D01*
X156582824Y-68773437D01*
X156568078Y-68863660D01*
X156523840Y-68917794D01*
X156450109Y-68935838D01*
X156382879Y-68891309D01*
X156343588Y-68780422D01*
X156327654Y-68711445D01*
X156304297Y-68637229D01*
X156274830Y-68563014D01*
X156240559Y-68494037D01*
X156193192Y-68433136D01*
X156124434Y-68383150D01*
X156036903Y-68349753D01*
X155933219Y-68338621D01*
X155835138Y-68351329D01*
X155745789Y-68389456D01*
X155665170Y-68453000D01*
X155601626Y-68538469D01*
X155563499Y-68642371D01*
X155550791Y-68764706D01*
X155259749Y-68764706D01*
X155259749Y-68315774D01*
X155264325Y-68222633D01*
X155278008Y-68130389D01*
X155300666Y-68039931D01*
X155332083Y-67952129D01*
X155371953Y-67867829D01*
X155419895Y-67787843D01*
X155475446Y-67712941D01*
X155538071Y-67643845D01*
X155607167Y-67581220D01*
X155682069Y-67525669D01*
X155762055Y-67477727D01*
X155846355Y-67437856D01*
X155934157Y-67406440D01*
X156024615Y-67383782D01*
X156116859Y-67370099D01*
X156210000Y-67365523D01*
X156303141Y-67370099D01*
X156395385Y-67383782D01*
X156485843Y-67406440D01*
X156573645Y-67437856D01*
X156657945Y-67477727D01*
X156737931Y-67525669D01*
X156812833Y-67581220D01*
X156881929Y-67643845D01*
X156944554Y-67712941D01*
X157000105Y-67787843D01*
X157048047Y-67867829D01*
X157087917Y-67952129D01*
X157119334Y-68039931D01*
X157141992Y-68130389D01*
X157155675Y-68222633D01*
X157160251Y-68315774D01*
X157160251Y-71384226D01*
X157155675Y-71477367D01*
G37*
G36*
X156189918Y-70910847D02*
G01*
X156151501Y-71012129D01*
X156036248Y-71062771D01*
X155920122Y-71012129D01*
X155880832Y-70907354D01*
X155880832Y-70687327D01*
X156189918Y-70687327D01*
X156189918Y-70910847D01*
G37*
X86103000Y-84180000D02*
X86103000Y-51410000D01*
X88643000Y-46200000D02*
X154943000Y-46200000D01*
X88643000Y-98150000D02*
X88643000Y-86720000D01*
X154943000Y-99800000D02*
X90293000Y-99800000D01*
X86103000Y-51410000D02*
X88643000Y-48870000D01*
X90293000Y-99800000D02*
X88643000Y-98150000D01*
X154943000Y-49380000D02*
X154943000Y-99800000D01*
X154943000Y-46200000D02*
X154943000Y-49380000D01*
X88643000Y-48870000D02*
X88643000Y-46200000D01*
X88643000Y-86720000D02*
X86103000Y-84180000D01*
X135164300Y-63322924D02*
X135164300Y-62813476D01*
X136209300Y-63322924D02*
X136209300Y-62813476D01*
X146140700Y-87833924D02*
X146140700Y-87324476D01*
X145095700Y-87833924D02*
X145095700Y-87324476D01*
X146140700Y-70104724D02*
X146140700Y-69595276D01*
X145095700Y-70104724D02*
X145095700Y-69595276D01*
X140002800Y-64648200D02*
X140002800Y-63718200D01*
X140002800Y-61488200D02*
X140002800Y-62418200D01*
X140002800Y-61488200D02*
X138542800Y-61488200D01*
X140002800Y-64648200D02*
X136842800Y-64648200D01*
X150086600Y-89159200D02*
X146926600Y-89159200D01*
X150086600Y-85999200D02*
X148626600Y-85999200D01*
X150086600Y-85999200D02*
X150086600Y-86929200D01*
X150086600Y-89159200D02*
X150086600Y-88229200D01*
X150010400Y-71430000D02*
X146850400Y-71430000D01*
X150010400Y-68270000D02*
X148550400Y-68270000D01*
X150010400Y-68270000D02*
X150010400Y-69200000D01*
X150010400Y-71430000D02*
X150010400Y-70500000D01*
X154466800Y-72125400D02*
X154466800Y-68225400D01*
X154466800Y-72125400D02*
X152466800Y-72125400D01*
X152466800Y-72125400D02*
X152466800Y-68225400D01*
X154466800Y-89854600D02*
X154466800Y-85954600D01*
X154466800Y-89854600D02*
X152466800Y-89854600D01*
X152466800Y-89854600D02*
X152466800Y-85954600D01*
X149878800Y-63862200D02*
X145878800Y-63862200D01*
X152228800Y-57512200D02*
X152228800Y-61512200D01*
X143528800Y-61512200D02*
X143528800Y-57512200D01*
X152928800Y-64562200D02*
X152928800Y-63562200D01*
X145878800Y-55162200D02*
X149878800Y-55162200D01*
X151928800Y-64562200D02*
X152928800Y-64562200D01*
X161590000Y-62893600D02*
X161626000Y-62858600D01*
X165465000Y-54143600D02*
X165465000Y-64423600D01*
X157604000Y-64423600D02*
X167525000Y-64423600D01*
X167525000Y-54143600D02*
X167525000Y-64423600D01*
X160564000Y-54143600D02*
X160564000Y-64423600D01*
X167765000Y-53903600D02*
X167765000Y-54403600D01*
X164104000Y-60789600D02*
X164139000Y-60754600D01*
X161796000Y-63098600D02*
X161842000Y-63051600D01*
X166965000Y-54143600D02*
X166965000Y-64423600D01*
X167025000Y-53903600D02*
X167765000Y-53903600D01*
X163888000Y-60596600D02*
X163934000Y-60549600D01*
X157604000Y-54143600D02*
X167525000Y-54143600D01*
X157604000Y-54143600D02*
X157604000Y-64423600D01*
X164545253Y-56772405D02*
G75*
G03*
X164400000Y-56059600I-1680254J28806D01*
G01*
X164399756Y-57426918D02*
G75*
G03*
X164545000Y-56743600I-1534756J683318D01*
G01*
X161329573Y-56060558D02*
G75*
G03*
X161330000Y-57427600I1535420J-683041D01*
G01*
X163548042Y-55208173D02*
G75*
G03*
X162181000Y-55208600I-683041J-1535420D01*
G01*
X162181958Y-58279026D02*
G75*
G03*
X163549000Y-58278600I683042J1535426D01*
G01*
X164545000Y-61823600D02*
G75*
G03*
X164545000Y-61823600I-1680000J0D01*
G01*
X152863333Y-81659000D02*
X153155867Y-81659000D01*
X152863333Y-82679000D02*
X153155867Y-82679000D01*
D14*
X150952200Y-76200000D02*
X150952200Y-81280000D01*
D15*
X147396200Y-80899000D02*
X147396200Y-76581000D01*
X151307800Y-76581000D02*
X151307800Y-80899000D01*
X147777200Y-76200000D02*
X150926800Y-76200000D01*
X150926800Y-81280000D02*
X147777200Y-81280000D01*
X147396200Y-80899000D02*
G75*
G03*
X147777200Y-81280000I381000J0D01*
G01*
X151307800Y-76581000D02*
G75*
G03*
X150926800Y-76200000I-380999J1D01*
G01*
X148844000Y-76200000D02*
G75*
G03*
X149860000Y-76200000I508000J0D01*
G01*
X150926800Y-81280000D02*
G75*
G03*
X151307800Y-80899000I0J381000D01*
G01*
X147777200Y-76200000D02*
G75*
G03*
X147396200Y-76581000I-1J-380999D01*
G01*
%LPC*%
D16*
X161036000Y-88860000D03*
D17*
X161036000Y-86360000D03*
X161036000Y-77470000D03*
D16*
X161036000Y-79970000D03*
D17*
X161036000Y-68580000D03*
D16*
X161036000Y-71080000D03*
D18*
X126873000Y-48870000D03*
D19*
X124333000Y-48870000D03*
X121793000Y-48870000D03*
X119253000Y-48870000D03*
X116713000Y-48870000D03*
X114173000Y-48870000D03*
X111633000Y-48870000D03*
X109093000Y-48870000D03*
X104013000Y-48870000D03*
X101473000Y-48870000D03*
X98933000Y-48870000D03*
X96393000Y-48870000D03*
X93853000Y-48870000D03*
X91313000Y-48870000D03*
X91313000Y-97130000D03*
X93853000Y-97130000D03*
X96393000Y-97130000D03*
X98933000Y-97130000D03*
X101473000Y-97130000D03*
X104013000Y-97130000D03*
X106553000Y-97130000D03*
X109093000Y-97130000D03*
X113153000Y-97130000D03*
X115693000Y-97130000D03*
X118233000Y-97130000D03*
X120773000Y-97130000D03*
X123313000Y-97130000D03*
X125853000Y-97130000D03*
X128393000Y-97130000D03*
X130933000Y-97130000D03*
X133473000Y-97130000D03*
X136013000Y-97130000D03*
D20*
X135686800Y-62155700D03*
X135686800Y-63980700D03*
X145618200Y-88491700D03*
X145618200Y-86666700D03*
X145618200Y-70762500D03*
X145618200Y-68937500D03*
D21*
X140742800Y-63068200D03*
X137742800Y-62118200D03*
X137742800Y-64018200D03*
X147826600Y-88529200D03*
X147826600Y-86629200D03*
X150826600Y-87579200D03*
X147750400Y-70800000D03*
X147750400Y-68900000D03*
X150750400Y-69850000D03*
D22*
X153466800Y-71525400D03*
X153466800Y-68225400D03*
X153466800Y-89254600D03*
X153466800Y-85954600D03*
D23*
X151378800Y-56012200D03*
X144378800Y-56012200D03*
X144378800Y-63012200D03*
X151378800Y-63012200D03*
D24*
X162865000Y-56743600D03*
D25*
X162865000Y-61823600D03*
D26*
X153872100Y-82169000D03*
X152147100Y-82169000D03*
D27*
X87920000Y-95000000D03*
X164000000Y-51000000D03*
X87920000Y-51000000D03*
X164000000Y-95000000D03*
D28*
X83000000Y-56490000D03*
X83000000Y-59030000D03*
X83000000Y-61570000D03*
X83000000Y-64110000D03*
X83000000Y-66650000D03*
X83000000Y-69190000D03*
X83000000Y-71730000D03*
X83000000Y-74270000D03*
X83000000Y-76810000D03*
X83000000Y-79350000D03*
X83000000Y-81890000D03*
X83000000Y-84430000D03*
X83000000Y-86970000D03*
X83000000Y-89510000D03*
D29*
X152425400Y-76835000D03*
X152425400Y-78105000D03*
X152425400Y-79375000D03*
X152425400Y-80645000D03*
X146278600Y-80645000D03*
X146278600Y-79375000D03*
X146278600Y-78105000D03*
X146278600Y-76835000D03*
M02*
